<svg xmlns="http://www.w3.org/2000/svg" xmlns:xlink="http://www.w3.org/1999/xlink" version="1.1" id="Layer_1" x="0px" y="0px" viewBox="0 0 1080 1080" style="enable-background:new 0 0 1080 1080;" xml:space="preserve">
<style xmlns="http://www.w3.org/2000/svg" type="text/css">
	.st0{fill:none;stroke:#C1C1C1;stroke-miterlimit:10;stroke-dasharray:11.9518,11.9518;}
	.st1{fill:#F7F7F7;}
	.st2{fill:#F2F2F2;}
	.st3{fill:#80DBFF;}
	.st4{fill:#B6E7FF;}
	.st5{fill:#FFFFFF;}
	.st6{fill:#2A94F4;}
	.st7{fill:#85DDFF;}
	.st8{fill:#41AAF7;}
	.st9{fill:#CCE9FF;}
	.st10{fill:#0B4870;}
	.st11{fill:#0A3B56;}
	.st12{fill:#1E88D8;}
	.st13{fill:#45AFFF;}
	.st14{fill:#E59405;}
	.st15{fill:#F6A400;}
	.st16{fill:#F9C4A0;}
	.st17{fill:#FFD1AE;}
	.st18{fill-rule:evenodd;clip-rule:evenodd;fill:#F6A400;}
	.st19{fill-rule:evenodd;clip-rule:evenodd;fill:none;stroke:#F6A400;stroke-miterlimit:10;}
</style>
<g xmlns="http://www.w3.org/2000/svg">
	<circle class="st0" cx="900.1" cy="324.1" r="125.5"/>
</g>
<g xmlns="http://www.w3.org/2000/svg">
	<path class="st1" d="M800.3,256.3c27.7,9.8,55.3,21.7,74.7,40.4c19.4,18.7,29.1,45.6,17.5,68.1c-15.6,30.1-64.8,47.6-65.1,80.2   c-0.2,23.3,26.6,41.2,53.6,49.6c27,8.5,56.9,11.5,81.4,23.9c37,18.7,54.4,54.9,61.5,89.7c7.4,36.1,4.4,77.2-27.3,103.3   c-39.4,32.5-104.5,28.9-160.3,21.9c-74.4-9.3-148.5-20.1-222.6-31C451.4,678.7,289,654.8,126.6,631c-17.4-2.6-35.5-5.4-49.7-13.9   c-28.1-17-30.5-52.1-14.1-77.2s46.5-42.1,76.5-56.8c30-14.7,61.7-28.7,84.2-50.5c22.5-21.8,33.7-54,16.6-78.8   c-14.4-21-45.4-32.2-58.9-53.6c-17.8-28.2,2.7-64.1,34.9-82.1S653.7,204.7,800.3,256.3z"/>
</g>
<path xmlns="http://www.w3.org/2000/svg" class="st2" d="M1018.9,971H61.1c-5.7,0-10.4-4.7-10.4-10.4v-46.5c0-5.7,4.7-10.4,10.4-10.4h957.8c5.7,0,10.4,4.7,10.4,10.4  v46.5C1029.3,966.3,1024.6,971,1018.9,971z"/>
<rect xmlns="http://www.w3.org/2000/svg" x="426" y="768" class="st3" width="228" height="126"/>
<path xmlns="http://www.w3.org/2000/svg" class="st4" d="M957.8,778.5H122.2c-7.8,0-14.2-6.4-14.2-14.2V315.7c0-7.8,6.4-14.2,14.2-14.2h835.6c7.8,0,14.2,6.4,14.2,14.2  v448.6C972,772.1,965.6,778.5,957.8,778.5z"/>
<path xmlns="http://www.w3.org/2000/svg" class="st5" d="M953,337.2v405.6c0,7.3-5.9,13.2-13.2,13.2H140.2c-7.3,0-13.2-5.9-13.2-13.2V337.2c0-7.3,5.9-13.2,13.2-13.2  h799.6C947.1,324,953,329.9,953,337.2z"/>
<path xmlns="http://www.w3.org/2000/svg" class="st4" d="M319,878h442c27.1,0,49,21.9,49,49v0H270v0C270,899.9,291.9,878,319,878z"/>
<rect xmlns="http://www.w3.org/2000/svg" x="146" y="335" class="st6" width="792" height="37"/>
<circle xmlns="http://www.w3.org/2000/svg" class="st5" cx="171" cy="353" r="12"/>
<g xmlns="http://www.w3.org/2000/svg">
	<path class="st4" d="M956.1,932c19.6,0,27.9-15.7,31.2-32.3c3.7-18.8,1-38.8,1-38.8H924c0,0-0.1,0.8-0.2,2.1   C922.5,874.9,918.6,932,956.1,932z"/>
	<path class="st7" d="M924,860.9c0,1.4,14.4,2.5,32.2,2.5c17.8,0,32.2-1.1,32.2-2.5s-14.4-2.5-32.2-2.5   C938.4,858.4,924,859.5,924,860.9z"/>
	<path class="st6" d="M869,682.5c0,0,33.9,51.6,54.3,83.1s25.7,38.1,28.1,48.2c2.4,10.2,4.6,47.8,4.6,47.8h1.5   c0,0-0.5-31.9-2.4-42.6c-1.8-10.4,0.1-14.1,1.6-25c1.5-10.9,3.4-28.4-7.6-40.5c-11-12.1-8.1-24-12-32c-3.9-8-33.9-17.7-37.8-25.9   C895.4,687.4,878.5,682.3,869,682.5z"/>
	<path class="st8" d="M869,682.5c0,0,10.7,12.1,17.9,16.2c7.3,4.1,10.7,0.5,16.2,10.4c5.6,9.9,5.8,14.3,10.9,19.4   c5.1,5.1,11.2,5.3,11.6,16.5c0.5,11.1-2.4,20.6-2.4,20.6S871.2,685.2,869,682.5z"/>
	<path class="st6" d="M953.3,861.7h-1.5c0,0-0.5-10.3-4.6-15.3c-2.6-3.2-13.9-6.9-25-11.3c-6.1-2.4-12.2-5.1-16.8-8   c-12.9-8.2-25.2-34.6-26.3-39.3c-0.4-1.6-0.5-2.6-0.5-3.3v0c0-1.3,0.7-1.5,1.7-2.7c0.5-0.6,2.1-0.4,4,0.2   c5.6,1.7,10.3,5.5,13.2,10.5c2.7,4.7,7,10.5,12.3,11.9c9.1,2.4,8.4,3.9,11.7,13.2c3.4,9.3,11.8,10.8,22.4,21.7   C954.7,850.1,953.3,861.7,953.3,861.7z"/>
	<path class="st8" d="M922.3,835c-6.1-2.4-12.2-5.1-16.8-8c-12.9-8.2-25.2-34.6-26.3-39.3c-0.4-1.6-0.5-2.6-0.5-3.3   c0,0.3,0.6,4.5,7.4,7.3c7,2.9,8.3,2.9,9.3,7.3c0.9,4.4,1.7,9.1,5.3,10c3.6,0.9,5.9-3.2,8.8,3.5c2.9,6.7,4.3,9,6.9,9.9   c2.7,0.9,4.7-0.5,5.3,4.7C922,830.2,922.2,833.2,922.3,835z"/>
	<path class="st6" d="M964.5,861.7h1.8c0,0,3.5-63.9,8.4-69.9c3.1-3.8,13.5-10.7,26.6-15.9c7.2-2.9,14.4-6,19.9-9.5   c15.3-9.7,29.9-41,31.1-46.6c0.4-1.9,0.6-3.1,0.6-3.9v0c0-1.5-0.8-1.7-2.1-3.2c-0.6-0.7-2.5-0.5-4.8,0.2c-6.6,2-12.2,6.5-15.6,12.5   c-3.2,5.5-8.3,12.4-14.5,14.1c-10.8,2.9-9.9,4.7-13.9,15.6c-4,11-14,12.8-26.6,25.7C962.9,793.8,964.5,861.7,964.5,861.7z"/>
	<path class="st8" d="M1001.3,775.9c7.2-2.9,14.4-6,19.9-9.5c15.3-9.7,29.9-41,31.1-46.6c0.4-1.9,0.6-3.1,0.6-3.9   c0,0.4-0.8,5.3-8.7,8.6c-8.3,3.4-9.9,3.4-11,8.6c-1.1,5.2-2,10.8-6.3,11.9c-4.3,1.1-7-3.8-10.4,4.1c-3.4,7.9-5,10.6-8.2,11.7   c-3.1,1.1-5.5-0.5-6.2,5.6C1001.6,770.2,1001.4,773.7,1001.3,775.9z"/>
	<g>
		<path class="st9" d="M956.1,932c19.6,0,27.9-15.7,31.2-32.3c-19.3-7.3-43.5-19-63.6-36.6C922.5,874.9,918.6,932,956.1,932z"/>
	</g>
</g>
<g xmlns="http://www.w3.org/2000/svg">
	<path class="st4" d="M98,934.7c11.7,0,16.7-9.4,18.6-19.3c2.2-11.2,0.6-23.1,0.6-23.1H78.8c0,0-0.1,0.5-0.1,1.3   C77.9,900.6,75.6,934.7,98,934.7z"/>
	<path class="st7" d="M78.8,892.2c0,0.8,8.6,1.5,19.2,1.5c10.6,0,19.2-0.7,19.2-1.5s-8.6-1.5-19.2-1.5   C87.4,890.7,78.8,891.4,78.8,892.2z"/>
	<path class="st6" d="M35,764.7c0,0,24.2,36.9,38.8,59.4c14.5,22.5,18.4,27.2,20.1,34.5c1.7,7.3,3.3,34.1,3.3,34.1h1.9   c0,0,1.2-22.7-1-30.1s-1.4-10.4-0.3-18.2c1-7.8,2.4-20.3-5.5-28.9c-7.9-8.7-5.8-17.1-8.6-22.9c-2.8-5.7-24.2-12.6-27-18.5   C53.9,768.2,41.8,764.5,35,764.7z"/>
	<path class="st8" d="M40.3,764.7c0,0,7.6,8.7,12.8,11.6c5.2,2.9,7.6,0.3,11.6,7.4c4,7.1,4.1,10.2,7.8,13.9c3.6,3.6,8,3.8,8.3,11.8   c0.3,8-1.7,14.7-1.7,14.7S41.9,766.6,40.3,764.7z"/>
	<path class="st6" d="M105.2,892.2l1.4-0.4c0,0-2.4-9.5,0-15.2c1.5-3.7,10.8-10.1,19.7-17.1c4.9-3.9,9.7-8,13.1-11.9   c9.5-11,13.5-38.5,13.2-43.1c-0.1-1.6-0.2-2.5-0.4-3.2l0,0c-0.4-1.1-1-1.2-2.3-2c-0.6-0.4-2,0.2-3.6,1.3c-4.6,3.1-7.9,7.8-9.1,13.2   c-1.2,5-3.5,11.5-7.9,14.2c-7.6,4.7-6.5,5.9-7.1,15.3c-0.5,9.4-7.8,13.1-14.5,26C100.8,882.1,105.2,892.2,105.2,892.2z"/>
	<path class="st8" d="M126.3,859.4c4.9-3.9,9.7-8,13.1-11.9c9.5-11,13.5-38.5,13.2-43.1c-0.1-1.6-0.2-2.5-0.4-3.2   c0.1,0.3,0.6,4.3-4.7,8.6c-5.6,4.5-6.8,4.9-6.5,9.2c0.4,4.3,1,8.8-2.1,10.6c-3.1,1.8-6.3-1.3-7.1,5.6c-0.8,6.9-1.4,9.3-3.6,10.9   c-2.2,1.6-4.4,0.9-3.5,5.7C125.2,855,125.9,857.7,126.3,859.4z"/>
	<g>
		<path class="st9" d="M98,934.7c11.7,0,16.7-9.4,18.6-19.3c-11.5-4.4-26-11.3-38-21.9C77.9,900.6,75.6,934.7,98,934.7z"/>
	</g>
</g>
<g xmlns="http://www.w3.org/2000/svg">
	<ellipse class="st10" cx="211.2" cy="752.2" rx="18.1" ry="20.6"/>
	<path class="st6" d="M308.8,1024.7c0,0,13.3,22.1,20.9,27.4c1.1,0.7,0.7,2.4-0.5,2.7c-7.4,2-23.5-9-25-12   c-1.7-3.4-10.3-1.7-10.3-6.9s3.4-15.5,3.4-15.5L308.8,1024.7z"/>
	<path class="st6" d="M338.8,1011.1c0,0,17.1,19.3,25.5,23.1c1.2,0.5,1.2,2.2,0,2.7c-6.9,3.3-24.7-4.5-26.8-7.2   c-2.3-3.1-10.5,0.2-11.4-4.9c-0.9-5.1,0.5-15.9,0.5-15.9L338.8,1011.1z"/>
	<path class="st11" d="M233.8,878l72.2,19.5l33.9,115.7l-12,0.9c0,0-36-53.3-33-81.2c-24.7-6.7-118.1,14.5-106.7-38.3   C199.6,841.9,233.8,878,233.8,878z"/>
	<path class="st10" d="M223.8,884.1l70.1,21.5l15.3,121.1l-12-0.7c0,0-26-59.6-19.1-86.8c-23.6-10.1-119-2-100.4-52.7   S223.8,884.1,223.8,884.1z"/>
	<path class="st12" d="M220.2,784.1c8.2,0,12.5,18,19.1,36.6c6.6,18.4,19.9,33.7,37.1,43.1l9.9,5.4l-8.1,7.3   c0,0-35.5-13.2-48.7-35.6C217.5,820.1,220.2,784.1,220.2,784.1z"/>
	<path class="st6" d="M221.9,784.3c-11-1-28-8.4-35.7,2.2s-16.7,80.6-5.1,95.7c15.4,1.5,57.8,3,56.5,0c-3.9-6.1-12.8-28.9-9-41   s10.3-19.8,0-31.9C226,795.7,221.9,784.3,221.9,784.3z"/>
	<path class="st13" d="M195.6,782.3c15.3-2.9,8.5,70.6,15.8,76.9c7.3,6.2,48.5,22.8,57.1,22.8c-5.2,5.2-12.1,8.6-12.1,8.6   s-49.8-9.7-56.7-16.6c-6.9-6.9-22.4-55.9-20.7-62.4S179.4,785.4,195.6,782.3z"/>
	<path class="st14" d="M229.5,901.4H322c1,0,1.7-0.8,1.7-1.7v-3.1c0-1-0.8-1.7-1.7-1.7h-92.6c-1,0-1.7,0.8-1.7,1.7v3.1   C227.7,900.6,228.5,901.4,229.5,901.4z"/>
	<path class="st15" d="M239.6,897.9H320c2.1,0,3.8-1.7,3.8-3.8l9.4-56.2c0-2.1-1.7-3.8-3.8-3.8h-80.4c-2.1,0-3.8,1.7-3.8,3.8   l-9.4,56.2C235.9,896.3,237.6,897.9,239.6,897.9z"/>
	
		<ellipse transform="matrix(0.3461 -0.9382 0.9382 0.3461 -623.6698 846.1075)" class="st5" cx="295.2" cy="870.5" rx="8.7" ry="6.1"/>
	<polygon class="st16" points="202.5,783.2 215.9,793.3 211.2,783.2 211.2,767.5 202.5,767.5  "/>
	<path class="st17" d="M200.9,752.4c-4.7,15.2,3.7,21.8,11,24c7.2,2.2,13-8.8,15.2-16c2.2-7.2-1.9-14.8-9.1-17.1   C210.7,741.1,203.1,745.1,200.9,752.4z"/>
	<path class="st10" d="M227.7,744.2c8,7.7,3.2,15.1,2.2,15.1s-23-2-23-2S206.7,738.2,227.7,744.2z"/>
	<path class="st10" d="M208.9,753.3c-5,2-9,8-12,5s13.9-24.3,23.9-15.6C230.9,751.3,208.9,753.3,208.9,753.3z"/>
	
		<ellipse transform="matrix(0.9914 -0.1312 0.1312 0.9914 -97.993 32.7662)" class="st17" cx="199.6" cy="759.8" rx="2.5" ry="3.5"/>
	<circle class="st10" cx="199.6" cy="728.2" r="10.6"/>
</g>
<path xmlns="http://www.w3.org/2000/svg" class="st18" d="M339.5,661.8c-18.5,0-33.9-14.8-34-33.4c0-0.1,0-0.2,0-0.4c0-30.4,27.2-56,64.1-63.5c-2.7-7.8-4.2-16-4.2-24.6  c0-49.7,49.7-90,110.9-90c34.2,0,64.8,12.6,85.2,32.5c12.6-19.5,34.5-32.5,59.5-32.5c39.1,0,70.7,31.8,70.7,70.9  c0,6.3-0.8,12.4-2.4,18.2c3.9-0.6,7.9-1,11.9-1c40.5,0,73.3,33.4,73.3,74.6c0,0.2,0,0.4,0,0.6c-0.2,27-22.4,48.6-49.3,48.6H339.5z"/>
<path xmlns="http://www.w3.org/2000/svg" class="st19" d="M313.5,685.2c-18.5,0-33.9-14.8-34-33.4c0-0.1,0-0.2,0-0.4c0-30.4,27.2-56,64.1-63.5c-2.7-7.8-4.2-16-4.2-24.6  c0-49.7,49.7-90,110.9-90c34.2,0,64.8,12.6,85.2,32.5c12.6-19.5,34.5-32.5,59.5-32.5c39.1,0,70.7,31.8,70.7,70.9  c0,6.3-0.8,12.4-2.4,18.2c3.9-0.6,7.9-1,11.9-1c40.5,0,73.3,33.4,73.3,74.6c0,0.2,0,0.4,0,0.6c-0.2,27-22.4,48.6-49.3,48.6H313.5z"/>
<g xmlns="http://www.w3.org/2000/svg">
	<g>
		<g>
			<path class="st5" d="M539.4,501.3L514.7,526c-2.5,2.4-1.9,4.1,1.5,4.1H530l0,30c0,5.2,4.2,9.4,9.4,9.4l0,0c5.2,0,9.4-4.2,9.4-9.4     l0-30h13.8c3.4,0,4-1.7,1.5-4.1L539.4,501.3z"/>
			<path class="st5" d="M586,561.7L586,561.7c-5.2,0-9.4,4.2-9.4,9.4v35h-73.2v-35c0-5.2-4.2-9.4-9.4-9.4h0c-5.2,0-9.4,4.2-9.4,9.4     V612c0,7.2,5.8,12.9,12.9,12.9h85c7.2,0,13-5.8,13-13v-40.9C595.5,565.9,591.2,561.7,586,561.7z"/>
		</g>
	</g>
</g>
<g xmlns="http://www.w3.org/2000/svg">
	<g>
		<path class="st5" d="M1117.7,671c1.9,0,1.9-3,0-3C1115.8,668,1115.8,671,1117.7,671L1117.7,671z"/>
	</g>
</g>
</svg>